<svg xmlns="http://www.w3.org/2000/svg" version="1.1" xmlns:xlink="http://www.w3.org/1999/xlink" xmlns:svgjs="http://svgjs.dev/svgjs" width="1000" height="1125" viewBox="0 0 1000 1125"><g transform="matrix(1,0,0,1,1.7053025658242404e-13,0)"><svg viewBox="0 0 320 360" data-background-color="#fafafa" preserveAspectRatio="xMidYMid meet" height="1125" width="1000" xmlns="http://www.w3.org/2000/svg" xmlns:xlink="http://www.w3.org/1999/xlink"><g id="tight-bounds" transform="matrix(1,0,0,1,0,0)"><svg viewBox="0 0 320 360" height="360" width="320"><g><svg></svg></g><g><svg viewBox="0 0 320 360" height="360" width="320"><g><path xmlns="http://www.w3.org/2000/svg" d="M20.961 227.22l3.726 4.658-1.863-6.056c-0.466-2.795-3.726 0.466-1.863 1.398M25.153 224.425c1.397 2.329 2.795 4.658 2.795 6.987 0 3.261 2.795 4.658 5.123 5.589-3.261-3.726-5.124-13.974-7.918-12.576M204.017 26.929c7.918 0 15.371-0.932 23.756 0.931 20.495 5.124 37.729 15.371 49.374 29.811l32.606 52.169c1.397 13.042 4.192 27.482 3.726 43.319 3.261 0 2.795-4.658 6.521-5.59-3.726 9.316-5.59 20.961-6.521 34.469-2.329-7.453 0-18.632 0.466-24.687-3.261 5.124-5.124 1.397-5.124-0.932 0.466-3.726-1.397-3.261-2.795-4.658-5.124-4.658-8.384-9.782-12.11-17.7 2.329-6.055 2.795-14.905-4.658-19.563-2.329-1.397-5.124-3.726-6.521-7.453-1.863-5.124-5.124-11.179-4.193-19.097 0.466-2.329-6.987 5.124-11.179 1.863-18.166-12.576-36.332-27.016-58.224-39.127-11.645 0-20.029-4.192-24.221-9.316-3.726-4.658-0.932-10.713 4.658-11.179 3.261 0 6.987-0.932 9.782 0.932 0.466-1.863 2.329-4.192 4.657-4.192M157.904 16.215l0.932 0.466c4.658 0.932 6.987 7.453 12.11 5.124 0 3.261 0.466 6.521-0.466 8.85-1.397 3.726-5.59 3.726-8.85 3.726-31.208-1.863-49.374 11.179-68.471 22.358-5.124 3.261-10.713 5.59-14.906 9.782-20.029 18.632-41.921 35.866-47.045 70.335l-4.192 38.195c-0.466 4.192-5.124 8.384-4.192 13.508l3.26 22.824c-3.261-3.261-5.124 0.932-4.192 2.795 0.466 1.397 2.329 6.055 5.124 1.863 3.726 6.987 7.453 20.495 12.576 26.55 15.837 18.632 36.332 35.4 53.101 52.169 4.192-0.932 7.453-0.932 8.384-3.727 1.397 2.795-1.397 5.59-3.726 6.056 7.453 4.658 15.837 8.85 27.016 9.781 14.44 0.932 27.948 3.261 40.524 6.522 6.521-1.863 13.042-2.795 20.029-3.261 2.329 0 3.726-3.726 6.521-4.658l0.466-4.658c2.795 4.192 2.329-1.397 0.466-4.192 3.261 2.795 4.192 5.124 5.589 6.987 0-1.397 3.726-6.521 3.727-0.466l0.931-6.055c1.397-0.932 1.863 5.124 3.261 0.931 1.397-4.192 4.192-0.932 6.987-2.329-0.932 1.863-0.466 5.59 2.794 3.261l3.727-3.261c2.329 5.59 6.055 3.261 7.918 2.329 20.495-13.042 40.99-28.413 60.553-43.784l-0.466 6.055 2.329-7.453c2.329 2.329 4.192 0.466 5.124-0.931 2.795-4.658 6.521-9.316 12.577-13.508-7.453 20.029-16.303 35.866-27.482 48.908l-4.658 5.59c0 3.261-0.932 7.453-4.658 7.918-1.863 0.466-5.59-0.932-8.384 1.863-1.397 1.863 3.261 5.59-0.466 2.795-3.261-2.329-6.521 0-10.248 0.932-2.795 0.932 1.863 3.726 2.795 5.589 0.932 1.863 1.863 3.726 1.398 6.056l-5.124-5.59c-6.055 3.261-9.782 9.316-14.906 13.974-2.329 1.863-1.397 5.124-1.397 7.918-3.261 0-6.987-0.932-8.85 0.932-1.397 1.863-0.932 4.658-0.932 7.453-4.658-0.466-5.124-7.453-9.315-6.056-4.192 0.932-8.85 1.397-12.577 3.727 2.795 5.59-4.658 2.329-3.726 3.26-6.987-4.192-13.042-7.453-20.495-4.658-15.837-5.124-35.4-2.795-49.84-0.931 0-2.329 0.466-4.658-0.466-5.124-0.932 2.329-3.726 1.397-3.26 1.397-8.85-6.055-17.7-9.782-27.016-14.905-8.384 0.932-16.303-3.261-18.632-5.59-6.521-6.055-13.974-2.795-20.029-4.192-13.042-3.261-17.7-16.769-19.098-26.084-0.932-4.658-4.658-6.521-6.055-6.056-6.055-19.563-15.371-37.263-22.824-55.429-1.863-4.658-1.397-9.316-1.397-14.44 2.329 0.932 4.658 0.466 4.192-2.794-2.329-15.371-7.918-27.016-13.974-38.195 3.261-15.837 3.726-34.469 11.179-48.443 6.521-12.576 18.632-19.098 27.016-29.811 2.795-3.726 2.795-8.85 5.59-12.11 9.316-9.316 18.632-19.098 28.879-27.482 4.658-3.726 10.247 0 17.234-1.397 2.329-8.384 11.645-15.837 20.495-13.508 3.726 0.932 11.179-8.85 13.508-9.782 3.726-1.397 1.863 3.726 1.863 6.987 8.85-6.987 20.961-10.713 32.14-14.906" fill="#130912" fill-rule="nonzero" stroke="none" stroke-width="1" stroke-linecap="butt" stroke-linejoin="miter" stroke-miterlimit="10" stroke-dasharray="" stroke-dashoffset="0" font-family="none" font-weight="none" font-size="none" text-anchor="none" style="mix-blend-mode: normal" data-fill-palette-color="tertiary"></path></g><g transform="matrix(1,0,0,1,77.81065088757396,90)"><svg viewBox="0 0 164.3786982248521 180" height="180" width="164.3786982248521"><g><svg viewBox="0 0 164.3786982248521 180" height="180" width="164.3786982248521"><g><svg viewBox="0 0 164.3786982248521 180" height="180" width="164.3786982248521"><g><svg viewBox="0 0 164.3786982248521 180" height="180" width="164.3786982248521"><g id="textblocktransform"><svg viewBox="0 0 164.3786982248521 180" height="180" width="164.3786982248521" id="textblock"><g><svg viewBox="0 0 164.3786982248521 180" height="180" width="164.3786982248521"><g transform="matrix(1,0,0,1,0,0)"><svg width="164.3786982248521" viewBox="3.049999952316284 -35.86000061035156 33.90999984741211 37.130001068115234" height="180" data-palette-color="#130912"><path d="M3.05-15.77L3.05-15.77Q3.05-18.58 3.7-21.15 4.35-23.73 5.54-25.96 6.74-28.2 8.44-30.02 10.13-31.84 12.23-33.14 14.33-34.45 16.78-35.16 19.24-35.86 21.95-35.86L21.95-35.86Q24.1-35.86 25.72-35.58 27.34-35.3 28.55-34.88 29.76-34.45 30.58-33.94 31.4-33.42 31.93-32.96L31.93-32.96Q31.91-32.96 31.91-32.79L31.91-32.79Q31.91-32.42 31.97-31.45 32.03-30.47 32.12-29.27 32.2-28.08 32.26-26.84 32.32-25.61 32.32-24.71L32.32-24.71Q32.32-24.56 32.23-24.38 32.13-24.19 31.74-24.19L31.74-24.19Q31.52-24.19 31.2-24.27L31.2-24.27Q30.69-24.41 29.91-24.94 29.13-25.46 28.09-26.04 27.05-26.61 25.77-27.06 24.49-27.51 22.97-27.51L22.97-27.51Q20.97-27.51 19.34-26.67 17.7-25.83 16.55-24.33 15.41-22.83 14.77-20.76 14.14-18.7 14.14-16.28L14.14-16.28Q14.14-14.16 14.53-12.3 14.92-10.45 15.71-9.09 16.5-7.74 17.68-6.96 18.85-6.18 20.43-6.18L20.43-6.18Q21.97-6.18 23.93-6.84L23.93-6.84 24.49-10.28 19.82-10.28Q20.36-13.23 20.75-14.92 21.14-16.6 21.48-17.46 21.83-18.31 22.19-18.53 22.56-18.75 23.05-18.75L23.05-18.75 35.89-18.75Q36.45-18.75 36.71-18.68 36.96-18.6 36.96-18.16L36.96-18.16Q36.96-17.94 36.91-17.64 36.87-17.33 36.79-16.89L36.79-16.89 35.57-12.79Q35.35-12.01 35.21-11.58 35.06-11.16 34.84-10.95 34.62-10.74 34.24-10.71 33.86-10.67 33.15-10.67L33.15-10.67Q32.76-10.67 32.69-10.35 32.62-10.03 32.57-9.69L32.57-9.69Q32.42-8.62 32.28-7.56 32.13-6.49 31.99-5.58 31.86-4.66 31.71-3.97 31.57-3.27 31.42-2.95L31.42-2.95Q29.76-1.9 28.41-1.11 27.05-0.32 25.71 0.21 24.37 0.73 22.88 1 21.39 1.27 19.46 1.27L19.46 1.27Q16.02 1.27 13.01 0.02 10.01-1.22 7.8-3.48 5.59-5.74 4.32-8.86 3.05-11.99 3.05-15.77Z" opacity="1" transform="matrix(1,0,0,1,0,0)" fill="#130912" class="wordmark-text-0" data-fill-palette-color="primary" id="text-0"></path></svg></g></svg></g></svg></g></svg></g><g></g></svg></g></svg></g></svg></g></svg></g><defs></defs></svg><rect width="320" height="360" fill="none" stroke="none" visibility="hidden"></rect></g></svg></g></svg>